<?xml version="1.0" encoding="utf-8"?>
<!-- Generator: Adobe Illustrator 23.0.4, SVG Export Plug-In . SVG Version: 6.00 Build 0)  -->
<svg version="1.1" id="Layer_1" xmlns="http://www.w3.org/2000/svg" xmlns:xlink="http://www.w3.org/1999/xlink" x="0px" y="0px"
	 viewBox="0 0 24 20" style="enable-background:new 0 0 24 20;" xml:space="preserve">
<path d="M14.9,10c-0.3,3.3-1.4,5.7-2.9,8H7c-1.4-2-2.6-4.4-2.9-8C4.1,10,14.9,10,14.9,10z M17,8H2c0,5.7,1.8,9,4,12h7
	C15.1,17.1,17,13.7,17,8z M18.1,10c-0.1,0.7-0.1,1.4-0.3,2h1.5c-0.4,1.3-1.5,2.5-2.3,2.9c-0.4,1-0.8,2-1.3,2.9
	c3.3-1.1,5.8-4.5,6.1-7.8C22,10,18.1,10,18.1,10z M10.4,7c4.7-4.3-1-4,0.1-7C6.7,3.8,11.9,3.9,10.4,7z M7.6,7
	c3.2-2.8-0.7-3.1,0.1-5.1C5,4.7,8.6,4.8,7.6,7z"/>
</svg>
