<?xml version="1.0" encoding="utf-8"?>
<!-- Generator: Adobe Illustrator 23.0.4, SVG Export Plug-In . SVG Version: 6.00 Build 0)  -->
<svg version="1.1" id="Layer_1" xmlns="http://www.w3.org/2000/svg" xmlns:xlink="http://www.w3.org/1999/xlink" x="48px" y="48px"
	 viewBox="0 0 95.2 98.5" style="enable-background:new 0 0 95.2 98.5;" xml:space="preserve">
<path d="M84.1,76.7c-2.6,1.7-5.4,2.7-8.1,3c-1.1,0.1-2.1,0.1-3,0c0.5,2.3-0.3,4.7-2.3,7c-2,2.3-5,4.2-8.4,5.3
	c-1.4,0.4-2.8,0.8-4.2,0.9c-5.9,0.7-10.7-1.4-12-5.3c-1.6-4.9,3-10.6,10.5-13c1.4-0.4,2.8-0.8,4.2-0.9c0,0,0,0,0,0
	c0.2,0,0.4,0,0.6-0.1c-4.8-3.3-9.1-7.2-12.8-11.8c-1.2,3.9-5.9,7.2-12.1,8.2c-7.8,1.3-14.5-1.8-15.3-6.8c-0.8-5.1,4.6-10,12.4-11.2
	c0.3-0.1,0.7-0.1,1-0.1c0,0,0,0,0,0c2.7-0.3,5.2-0.1,7.4,0.5c-0.4-0.6-0.8-1.3-1.1-1.9C37.8,45,35,38.9,32.5,31.6
	c-1.5,3.6-4.3,8.3-9,10.8c-1.8,0.9-3.8,1.5-6,1.8C11.2,45,5.2,42.7,5,42.6c-0.7-0.3-1.1-1-0.9-1.7c0.1-0.5,2.5-11.1,10.5-15.4
	c1.8-0.9,3.8-1.5,6-1.8c3.7-0.4,7.3,0.2,9.7,0.8c-1.7-5.9-3.4-12.4-5-19.7C25.1,4,25.6,3.2,26.4,3c0.1,0,0.1,0,0.2,0
	c0.8-0.1,1.5,0.4,1.6,1.2c1.6,7.4,3.4,14.1,5.2,20.1c2.8-3.3,8.9-9.4,16.9-10.3l0.3,0C61.4,12.8,71,22,71.4,22.4
	c0.5,0.5,0.6,1.3,0.2,1.9c-0.3,0.5-7.8,11.1-18.5,12.3l-0.3,0c-6.9,0.7-13.2-2.7-17.1-5.4c3.1,8.9,6.6,16,10.3,21.9
	c0.3-1,0.9-2,1.6-2.9c1.8-2.4,4.7-4.5,8-5.9c1.8-0.7,3.6-1.2,5.4-1.4c5.3-0.6,9.6,1.2,11,4.6c1.9,4.7-2.3,10.8-9.6,13.7
	c-1.8,0.7-3.6,1.2-5.4,1.4c-1.3,0.2-2.6,0.2-3.8,0c4.1,4.5,8.5,7.9,13.2,10.7c-0.1-1.5,0.3-3.1,1.1-4.8c1.3-2.7,3.7-5.3,6.8-7.3
	c2.6-1.7,5.4-2.7,8.1-3c3.9-0.4,7,0.7,8.6,3.2C93.7,65.7,90.7,72.4,84.1,76.7z M34.1,55.1c-5.9,0.9-10.4,4.5-9.9,7.8
	c0.5,3.1,5.4,5.1,11,4.4c0.3,0,0.6-0.1,0.8-0.1c5.9-0.9,10.4-4.5,9.9-7.8C45.4,56.1,40,54.1,34.1,55.1z M15.9,28.1
	c-5.3,2.8-7.8,9.3-8.6,12.1c1.9,0.6,5.9,1.6,9.9,1.1c1.8-0.2,3.5-0.7,4.9-1.5c2.9-1.5,4.9-4.2,6.3-6.7c-4.6,3.8-10,6.1-16,6.9
	c0,0,0,0,0,0c-0.8,0.1-1.5-0.5-1.7-1.3c-0.1-0.8,0.5-1.6,1.3-1.7c7.1-1,13.1-4.2,17.9-9.6c-2.1-0.6-5.6-1.3-9.1-0.9
	C19,26.9,17.4,27.4,15.9,28.1z M52.5,33.7l0.2,0c7.5-0.9,13.5-7.4,15.6-10c-2.6-2.2-9.8-7.5-17.5-6.8l-0.2,0
	c-7,0.8-12.6,6.5-15.1,9.4c8.8,2.4,17.4,1.7,25.5-2.3c0.7-0.4,1.6-0.1,2,0.7c0.4,0.7,0.1,1.6-0.7,2c-7.1,3.5-14.8,4.6-22.6,3.5
	C43.1,32.3,47.7,34.2,52.5,33.7z M61.3,58.5c5.5-2.2,9.2-6.7,7.9-9.8c-0.8-2.1-4-3.2-7.9-2.8c-1.5,0.2-3.1,0.6-4.7,1.2
	c-2.8,1.2-5.2,2.9-6.7,4.9c-1.3,1.8-1.7,3.5-1.2,4.9c0.8,2.1,4,3.2,7.8,2.8C58.2,59.5,59.7,59.1,61.3,58.5z M61.1,76.8
	c-1.2,0.1-2.4,0.4-3.6,0.8c-5.7,1.8-9.6,6.1-8.6,9.2c0.8,2.4,4.4,3.7,8.8,3.2c1.2-0.1,2.4-0.4,3.6-0.8c2.9-0.9,5.4-2.5,7.1-4.4
	c1.4-1.7,2-3.4,1.5-4.8C69.2,77.6,65.5,76.3,61.1,76.8C61.1,76.8,61.1,76.8,61.1,76.8z M88.4,63.1c-0.9-1.5-3-2.1-5.7-1.8
	c-2.2,0.3-4.7,1.2-6.9,2.6c-2.6,1.7-4.6,3.8-5.7,6c-1,2-1.1,3.8-0.3,5c0.2,0.4,0.5,0.7,0.9,0.9c0,0,0,0,0,0c1.1,0.8,2.8,1.1,4.8,0.9
	c2.2-0.3,4.7-1.2,6.9-2.6C87.5,70.9,90.2,65.8,88.4,63.1z"/>
</svg>
