<?xml version="1.0" encoding="utf-8"?>
<!-- Generator: Adobe Illustrator 23.0.4, SVG Export Plug-In . SVG Version: 6.00 Build 0)  -->
<svg version="1.1" id="Layer_1" xmlns="http://www.w3.org/2000/svg" xmlns:xlink="http://www.w3.org/1999/xlink" x="0px" y="0px"
	 viewBox="0 0 157 236.3" style="enable-background:new 0 0 157 236.3;" xml:space="preserve">
<g>
	<path d="M78,0c55,0,79,70,79,116c0,45-24,116-79,116S0,161,0,116C0,70,23,0,78,0z M88,21c-17,46-9,69-1,92c9,24,17,49,7,95
		c31-15,43-61,43-92C137,84,123,31,88,21z M73,211c12-45,3-69-5-91c-9-26-17-50-1-98c-34,12-47,62-47,94S35,205,73,211z"/>
</g>
</svg>
